<?xml version="1.0" encoding="UTF-8"?>
<svg width="36px" height="48px" viewBox="0 0 36 48" version="1.1" xmlns="http://www.w3.org/2000/svg" xmlns:xlink="http://www.w3.org/1999/xlink">
    <!-- Generator: Sketch 50.2 (55047) - http://www.bohemiancoding.com/sketch -->
    <title>Group 4</title>
    <desc>Created with Sketch.</desc>
    <defs></defs>
    <g id="Page-1" stroke="none" stroke-width="1" fill="none" fill-rule="evenodd">
        <g id="LSH-00-Copy-67" transform="translate(-352.000000, -1826.000000)" fill="#B3472D">
            <g id="Group-4" transform="translate(352.000000, 1826.000000)">
                <path d="M35.9513386,14.3782133 C35.9513386,11.5272254 33.9548834,8.02648237 31.515713,6.6004523 L22.4601736,1.30805801 C20.0199441,-0.117972061 16.0280929,-0.117972061 13.5878633,1.30805801 L4.53232393,6.6004523 C2.09209438,8.02648237 0.0956392052,11.5272254 0.0956392052,14.3782133 L0.0956392052,35.4984691 C0.0956392052,36.9298602 1.24267419,38.0910561 2.65660929,38.0910561 C4.07160351,38.0899839 5.21757937,36.9298602 5.21863849,35.4984691 L5.21863849,14.7802894 C5.21863849,13.3542594 6.21633651,11.6033518 7.43645129,10.8903367 L15.8056761,6.00001859 C17.02685,5.28700356 19.022246,5.28700356 20.2423608,6.00001859 L28.6115856,10.8914089 C29.8317004,11.6033518 30.8293984,13.3542594 30.8293984,14.7802894 L30.8304575,26.8007579 C30.8304575,28.2332212 31.9764334,29.3944171 33.3903685,29.3954893 C34.3859483,29.3944171 35.2470189,28.8197163 35.6706698,27.9801813 C35.8496624,27.6263543 35.9534568,27.2253503 35.9534568,26.8018301 L35.9513386,14.3782133 Z" id="Fill-13"></path>
                <path d="M35.9523977,35.9924331 C35.9523977,37.4238242 34.8053627,38.5839479 33.3903685,38.5850201 C31.9764334,38.5850201 30.8304575,37.4238242 30.8304575,35.9924331 L30.8304575,34.0967781 C30.8304575,32.6643148 31.9764334,31.5031189 33.3903685,31.5031189 C34.8053627,31.5031189 35.9523977,32.6643148 35.9523977,34.0957059 L35.9523977,35.9924331 Z" id="Fill-14"></path>
                <path d="M18.0238066,17.080165 C16.6098715,17.0812372 15.4628366,18.2413609 15.4628366,19.6738242 L15.4638957,35.9927547 C15.4638957,37.4241458 16.6098715,38.5853417 18.0238066,38.5853417 C19.4388009,38.5853417 20.5847767,37.4241458 20.5847767,35.9927547 L20.5847767,19.6738242 C20.5847767,18.2413609 19.4377417,17.0812372 18.0238066,17.080165" id="Fill-15"></path>
                <path d="M25.706611,23.9819361 C27.1194869,23.9819361 28.2654628,22.8228846 28.267581,21.3925657 L28.267581,16.2770849 C28.267581,14.8510548 27.269883,13.1012194 26.0497682,12.3882044 L20.2425726,8.99360953 C19.0224579,8.28059449 17.0260027,8.28059449 15.8058879,8.99360953 L9.9976332,12.3882044 C8.77857755,13.1012194 7.7798204,14.8510548 7.7798204,16.2770849 L7.7798204,39.8837796 C7.7798204,41.3098097 8.77857755,43.0585729 9.9976332,43.7715879 L15.8058879,47.167255 C17.0260027,47.88027 19.0224579,47.88027 20.2425726,47.167255 L26.0497682,43.7715879 C27.269883,43.0585729 28.267581,41.3098097 28.267581,39.8837796 L28.267581,28.6792577 C28.2654628,27.2489388 27.1194869,26.0898873 25.706611,26.0898873 C24.2926759,26.0898873 23.1456409,27.2510832 23.1456409,28.6824743 L23.1456409,38.1864822 C23.1456409,38.898425 22.6467919,39.7733427 22.0367345,40.1303863 L19.1326071,41.8276838 C18.5225497,42.1847274 17.5248517,42.1847274 16.9147943,41.8276838 L14.0117261,40.1303863 C13.4016687,39.7733427 12.9028197,38.898425 12.9028197,38.1864822 L12.9028197,17.9743823 C12.9028197,17.2613673 13.4016687,16.3875218 14.0117261,16.029406 L16.9147943,14.3321086 C17.5248517,13.9750649 18.5225497,13.9750649 19.1326071,14.3321086 L22.0367345,16.029406 C22.6467919,16.3875218 23.1456409,17.2613673 23.1456409,17.9743823 L23.1456409,21.3893491 C23.1456409,22.8207402 24.2926759,23.9819361 25.706611,23.9819361" id="Fill-16"></path>
            </g>
        </g>
    </g>
</svg>