<?xml version="1.0" encoding="UTF-8"?>
<svg width="50px" height="48px" viewBox="0 0 50 48" version="1.1" xmlns="http://www.w3.org/2000/svg" xmlns:xlink="http://www.w3.org/1999/xlink">
    <!-- Generator: Sketch 50.2 (55047) - http://www.bohemiancoding.com/sketch -->
    <title>Group 4</title>
    <desc>Created with Sketch.</desc>
    <defs></defs>
    <g id="Page-1" stroke="none" stroke-width="1" fill="none" fill-rule="evenodd">
        <g id="Group-4" transform="translate(0.000000, -6.000000)" fill="#006FB6">
            <path d="M12.3786116,12.3786116 C19.0452783,5.71194495 30.021589,3.35492235 45.3075438,5.30754381 C47.2601653,20.5934986 44.9031427,31.5698093 38.236476,38.236476 C31.5698093,44.9031427 20.5934986,47.2601653 5.30754381,45.3075438 C3.35492235,30.021589 5.71194495,19.0452783 12.3786116,12.3786116 Z" id="Rectangle-3" opacity="0.698549107" transform="translate(25.307544, 25.307544) rotate(-345.000000) translate(-25.307544, -25.307544) "></path>
            <path d="M12.3786116,21.3786116 C19.0452783,14.711945 30.021589,12.3549223 45.3075438,14.3075438 C47.2601653,29.5934986 44.9031427,40.5698093 38.236476,47.236476 C31.5698093,53.9031427 20.5934986,56.2601653 5.30754381,54.3075438 C3.35492235,39.021589 5.71194495,28.0452783 12.3786116,21.3786116 Z" id="Rectangle-3-Copy" opacity="0.692633929" style="mix-blend-mode: multiply;" transform="translate(25.307544, 34.307544) scale(-1, 1) rotate(-345.000000) translate(-25.307544, -34.307544) "></path>
        </g>
    </g>
</svg>