<?xml version="1.0" encoding="UTF-8"?>
<svg width="73px" height="51px" viewBox="0 0 73 51" version="1.1" xmlns="http://www.w3.org/2000/svg" xmlns:xlink="http://www.w3.org/1999/xlink">
    <!-- Generator: Sketch 50.2 (55047) - http://www.bohemiancoding.com/sketch -->
    <title>lpn_logo</title>
    <desc>Created with Sketch.</desc>
    <defs></defs>
    <g id="Page-1" stroke="none" stroke-width="1" fill="none" fill-rule="evenodd">
        <g id="lpn_logo" transform="translate(0.000000, 2.000000)">
            <g id="Group-3" transform="translate(0.000000, 15.000000)" fill="#006FB6" fill-rule="nonzero">
                <g id="Group-2-Copy">
                    <g id="Group-6" transform="translate(31.284715, 0.000000)">
                        <rect id="Rectangle-Copy-27" transform="translate(2.011032, 9.600000) rotate(180.000000) translate(-2.011032, -9.600000) " x="0.363636433" y="8" width="3.29479145" height="3.2"></rect>
                        <rect id="Rectangle-Copy-16" transform="translate(2.011032, 13.600000) rotate(180.000000) translate(-2.011032, -13.600000) " x="0.363636433" y="12" width="3.29479145" height="3.2"></rect>
                        <rect id="Rectangle-Copy-28" transform="translate(2.011032, 5.600000) rotate(180.000000) translate(-2.011032, -5.600000) " x="0.363636433" y="4" width="3.29479145" height="3.2"></rect>
                        <rect id="Rectangle-Copy-28" transform="translate(2.011032, 1.600000) rotate(180.000000) translate(-2.011032, -1.600000) " x="0.363636433" y="2.22044605e-16" width="3.29479145" height="3.2"></rect>
                        <rect id="Rectangle-Copy-9-Copy" transform="translate(6.669460, 1.600000) rotate(180.000000) translate(-6.669460, -1.600000) " x="5.02206462" y="-2.99874823e-25" width="3.29479145" height="3.2"></rect>
                        <rect id="Rectangle-Copy-24" transform="translate(10.865303, 10.133333) rotate(180.000000) translate(-10.865303, -10.133333) " x="9.21790703" y="8.53333292" width="3.29479145" height="3.2"></rect>
                        <rect id="Rectangle-Copy-25" transform="translate(10.865303, 14.400000) rotate(180.000000) translate(-10.865303, -14.400000) " x="9.21790703" y="12.8" width="3.29479145" height="3.2"></rect>
                        <rect id="Rectangle-Copy-22" transform="translate(10.453454, 2.000000) rotate(180.000000) translate(-10.453454, -2.000000) " x="9.21790722" y="0.8" width="2.47109359" height="2.4"></rect>
                        <rect id="Rectangle-Copy-23" transform="translate(10.865303, 5.866667) rotate(180.000000) translate(-10.865303, -5.866667) " x="9.21790703" y="4.26666708" width="3.29479145" height="3.2"></rect>
                    </g>
                    <g id="Group-7">
                        <rect id="Rectangle-Copy-7" transform="translate(1.787676, 5.600000) rotate(180.000000) translate(-1.787676, -5.600000) " x="0.140279988" y="4" width="3.29479145" height="3.2"></rect>
                        <rect id="Rectangle-Copy-20" transform="translate(1.787676, 9.600000) rotate(180.000000) translate(-1.787676, -9.600000) " x="0.140279988" y="8" width="3.29479145" height="3.2"></rect>
                        <rect id="Rectangle-Copy-12" transform="translate(2.310942, 13.091788) rotate(180.000000) translate(-2.310942, -13.091788) " x="1.18681227" y="12" width="2.24825851" height="2.18357591"></rect>
                        <rect id="Rectangle-Copy-14" transform="translate(6.139325, 13.600000) rotate(180.000000) translate(-6.139325, -13.600000) " x="4.49192964" y="12" width="3.29479145" height="3.2"></rect>
                        <rect id="Rectangle-Copy-15" transform="translate(10.350692, 13.600000) rotate(180.000000) translate(-10.350692, -13.600000) " x="8.70329609" y="12" width="3.29479145" height="3.2"></rect>
                        <rect id="Rectangle-Copy-13" transform="translate(1.787676, 1.600000) rotate(180.000000) translate(-1.787676, -1.600000) " x="0.140279988" y="2.22044605e-16" width="3.29479145" height="3.2"></rect>
                    </g>
                    <g id="Group-5" transform="translate(15.858256, 0.000000)">
                        <rect id="Rectangle-Copy-6" transform="translate(1.787676, 5.600000) rotate(180.000000) translate(-1.787676, -5.600000) " x="0.140279988" y="4" width="3.29479145" height="3.2"></rect>
                        <rect id="Rectangle-Copy-19" transform="translate(1.787676, 9.600000) rotate(180.000000) translate(-1.787676, -9.600000) " x="0.140279988" y="8" width="3.29479145" height="3.2"></rect>
                        <rect id="Rectangle-Copy-26" transform="translate(5.727475, 9.200000) rotate(180.000000) translate(-5.727475, -9.200000) " x="4.49192783" y="8" width="2.47109359" height="2.4"></rect>
                        <rect id="Rectangle-Copy-8" transform="translate(1.787676, 13.600000) rotate(180.000000) translate(-1.787676, -13.600000) " x="0.140279988" y="12" width="3.29479145" height="3.2"></rect>
                        <rect id="Rectangle-Copy-9" transform="translate(1.787676, 1.600000) rotate(180.000000) translate(-1.787676, -1.600000) " x="0.140279988" y="2.22044605e-16" width="3.29479145" height="3.2"></rect>
                        <rect id="Rectangle-Copy-21" transform="translate(6.040451, 1.600000) rotate(180.000000) translate(-6.040451, -1.600000) " x="4.39305512" y="-2.22044605e-16" width="3.29479145" height="3.2"></rect>
                        <rect id="Rectangle-Copy-22" transform="translate(10.433506, 1.600000) rotate(180.000000) translate(-10.433506, -1.600000) " x="8.78611025" y="-1.49937412e-25" width="3.29479145" height="3.2"></rect>
                        <rect id="Rectangle-Copy-23" transform="translate(10.490973, 5.600000) rotate(180.000000) translate(-10.490973, -5.600000) " x="8.84357729" y="4" width="3.29479145" height="3.2"></rect>
                    </g>
                </g>
            </g>
            <path d="M2,10.5074327 L31.97412,10.5074327 C37.1092232,4.89787944 42.3934321,1.55037295 47.8267468,0.464913176 C53.2600615,-0.620546602 60.651146,0.194708082 70,2.91067723 C66.9266105,9.0519364 64.1557544,13.6578609 61.6874317,16.7284507 C59.2191093,19.7990405 56.4729915,22.0562236 53.4490785,23.5 C56.7718934,24.547931 60.0030044,26.837925 63.1424116,30.3699821 C66.2818187,33.9020392 68.5676813,37.8190345 70,42.120968 C62.3723772,46.3074489 54.9812926,47.7997547 47.8267468,46.5978852 C40.672201,45.3960157 35.3879922,41.7744276 31.97412,35.733121 L20.7891271,35.733121" id="Path-3" stroke="#006FB6" stroke-width="3"></path>
        </g>
    </g>
</svg>