<?xml version="1.0" encoding="UTF-8"?>
<svg width="34px" height="37px" viewBox="0 0 34 37" version="1.1" xmlns="http://www.w3.org/2000/svg" xmlns:xlink="http://www.w3.org/1999/xlink">
    <!-- Generator: Sketch 50.2 (55047) - http://www.bohemiancoding.com/sketch -->
    <title>Group</title>
    <desc>Created with Sketch.</desc>
    <defs></defs>
    <g id="Page-1" stroke="none" stroke-width="1" fill="none" fill-rule="evenodd">
        <g id="LSH-00-Copy-65" transform="translate(-352.000000, -51.000000)" fill="#466FFF">
            <g id="Group" transform="translate(352.000000, 51.000000)">
                <path d="M17.1653998,16.8287242 C16.2531499,16.8294166 15.5131,17.5786001 15.5131,18.5036547 L15.5137833,34.9296062 C15.5137833,35.8539684 16.2531499,36.6038443 17.1653998,36.6038443 C18.078333,36.6038443 18.8170163,35.8539684 18.8176996,34.9296062 L18.8176996,18.5036547 C18.8176996,17.5786001 18.0776497,16.8294166 17.1653998,16.8287242" id="Fill-17"></path>
                <path d="M13.8605268,33.0144107 C13.8598435,33.938773 13.1211602,34.6886489 12.208227,34.6886489 C11.2959771,34.6886489 10.5559272,33.938773 10.5559272,33.0144107 L10.5559272,30.1831619 C10.5559272,29.2581073 11.2959771,28.5089238 12.208227,28.5082314 C13.1211602,28.5082314 13.8605268,29.2581073 13.8605268,30.1831619 L13.8605268,33.0144107 Z" id="Fill-19"></path>
                <path d="M28.7323185,30.1081743 C28.7323185,31.0325366 27.992952,31.78172 27.0793354,31.78172 C26.1670855,31.7824125 25.4277189,31.0325366 25.4277189,30.1081743 L25.4277189,27.9464823 C25.4277189,27.0214276 26.1670855,26.2722442 27.0793354,26.2722442 C27.992952,26.2722442 28.7323185,27.0221201 28.7323185,27.9471747 L28.7323185,30.1081743 Z" id="Fill-21"></path>
                <path d="M23.7741891,33.0144107 C23.7748724,33.938773 23.0348225,34.6886489 22.1218893,34.6886489 C21.2096394,34.6886489 20.4702728,33.938773 20.4702728,33.0144107 L20.4702728,23.3311105 C20.4702728,22.4060559 21.2096394,21.65618 22.1225726,21.65618 C23.0348225,21.65618 23.7748724,22.4060559 23.7741891,23.3311105 L23.7741891,33.0144107 Z" id="Fill-23"></path>
                <path d="M20.4693161,17.6252682 L20.4699994,18.6964206 L20.4699994,17.6134973 C20.4699994,17.6176518 20.4693161,17.6211138 20.4693161,17.6252682" id="Fill-25"></path>
                <path d="M23.7748724,18.6956589 L23.7741891,18.0503364 L23.7741891,18.6984286 C23.7741891,18.6977361 23.7748724,18.6970437 23.7748724,18.6956589" id="Fill-27"></path>
                <path d="M22.3434259,13.7987548 L18.5967096,11.6065969 C17.8095097,11.1461468 16.5214265,11.1461468 15.73491,11.6065969 L11.9875104,13.7987548 C11.2003104,14.2592049 10.5559272,15.3892118 10.5559272,16.310112 L10.5559272,25.611204 C10.5559272,26.5362586 11.2952938,27.2861345 12.208227,27.2861345 C13.1211602,27.2861345 13.8612102,26.5362586 13.8612102,25.611204 L13.8612102,17.4061909 C13.8612102,16.9457408 14.1830601,16.3814298 14.5766601,16.1501661 L16.4496765,15.0547796 C16.8432765,14.8235159 17.4869764,14.8235159 17.8805764,15.0547796 L19.7542762,16.1501661 C20.1478761,16.3814298 20.4697261,16.9457408 20.4697261,17.4061909 L20.4697261,18.6961436 C20.4697261,19.6205058 21.209776,20.3703817 22.1220259,20.3703817 C23.0335925,20.3703817 23.7729591,19.6218907 23.7743257,18.6982208 L23.7743257,16.310112 C23.7743257,15.3892118 23.1306258,14.2592049 22.3434259,13.7987548" id="Fill-29"></path>
                <path d="M22.5659875,2.32946207 L22.5154209,2.2996886 L20.7428544,1.26315657 C18.7748546,0.111685115 15.5556716,0.111685115 13.5876719,1.26315657 L4.21917287,6.74355139 C2.25117309,7.89363803 0.64123993,10.7193476 0.64123993,13.0215981 L0.64123993,14.9804152 C0.665839928,15.8383064 1.39495652,16.5265581 2.29353975,16.5265581 C3.19280632,16.5258657 3.92260624,15.837614 3.94583957,14.9797227 C3.9465229,14.9658746 3.94583957,14.1176771 3.94583957,14.1176771 C3.94583957,12.2758767 5.23392276,10.0158629 6.80763926,9.09496273 L14.3031218,4.70995447 C15.8775216,3.78905427 18.4530047,3.78905427 20.0274045,4.70995447 L20.8002544,5.16278811 L21.0155044,5.28880603 C21.2348544,5.3975138 21.4794877,5.45844554 21.738471,5.45844554 C22.6534542,5.45844554 23.3941875,4.70787725 23.3941875,3.7814378 C23.3941875,3.16034947 23.0607208,2.61958025 22.5659875,2.32946207" id="Fill-31"></path>
                <path d="M33.6885347,13.0218751 C33.6885347,10.7196246 32.0792848,7.89391499 30.1119684,6.74382835 L26.4267521,4.58767554 C26.2060355,4.47689056 25.9579855,4.41318919 25.6949022,4.41318919 C24.7806023,4.41318919 24.0398691,5.16444988 24.0398691,6.09088933 C24.0398691,6.69882195 24.3589857,7.22920507 24.8359523,7.52347769 L27.5221353,9.09454729 C29.0958518,10.0154475 30.383935,12.2761536 30.383935,14.1172616 L30.3846184,21.3445972 C30.3846184,22.2689594 31.123985,23.0188353 32.0362349,23.0195277 C32.9491681,23.0188353 33.6899013,22.2696518 33.6885347,21.3445972 L33.6885347,13.0218751 Z" id="Fill-33"></path>
                <path d="M3.9465229,24.4722651 C3.94583957,25.3966273 3.20647298,26.1458108 2.29353975,26.1465032 C1.38128985,26.1465032 0.64123993,25.3966273 0.64123993,24.4722651 L0.64123993,19.562413 C0.64123993,18.6373583 1.38128985,17.8874824 2.29353975,17.8874824 C3.20647298,17.8874824 3.94583957,18.6373583 3.94583957,19.5617206 L3.9465229,24.4722651 Z" id="Fill-35"></path>
                <path d="M25.8695622,10.0615617 L20.0270628,6.6438449 C18.4533463,5.7229447 15.8771799,5.7229447 14.3034634,6.6438449 L12.9661803,7.42626387 C12.508347,7.72469093 12.204947,8.24399555 12.204947,8.83600283 C12.204947,9.76313468 12.9456803,10.513703 13.8599802,10.513703 C14.1333135,10.513703 14.3902468,10.4458472 14.6171134,10.3274457 L15.7350466,9.67312188 C16.5222465,9.21267178 17.8096464,9.21267178 18.5968463,9.67312188 L23.9965457,12.8325712 C24.7830623,13.2923289 25.4274456,14.4230282 25.4274456,15.3439284 C25.4274456,15.3439284 25.4267622,20.1699994 25.4267622,20.1741538 L25.4267622,23.3121386 C25.4267622,24.2371932 26.1661288,24.9870691 27.0790621,24.9877615 C27.7213953,24.9870691 28.2755786,24.6159394 28.5502786,24.0730929 C28.6657619,23.8452913 28.7320452,23.5863314 28.7320452,23.312831 L28.7320452,15.0842761 C28.7320452,13.2431681 27.4446454,10.9824619 25.8695622,10.0615617" id="Fill-37"></path>
                <path d="M9.90867392,9.47121624 C9.63329062,9.47121624 9.37430731,9.54045686 9.14539067,9.66162794 L8.46069075,10.0618387 C6.88697425,10.9827389 5.59889106,13.2427526 5.59889106,15.084553 L5.59889106,30.1083821 C5.59820772,31.0327443 6.33825764,31.7826202 7.25119088,31.7826202 C8.16344078,31.7826202 8.90280737,31.0327443 8.90280737,30.1083821 L8.9034907,15.3442054 C8.9034907,14.4226127 9.54787396,13.2926059 10.3350739,12.8321558 C10.3350739,12.8321558 10.7771905,12.5787351 10.8359572,12.539268 C11.2760238,12.2373789 11.5643904,11.7277679 11.5643904,11.1496088 C11.5643904,10.2217845 10.8229738,9.47121624 9.90867392,9.47121624" id="Fill-39"></path>
            </g>
        </g>
    </g>
</svg>