<?xml version="1.0" ?><!DOCTYPE svg  PUBLIC '-//W3C//DTD SVG 1.1//EN'  'http://www.w3.org/Graphics/SVG/1.1/DTD/svg11.dtd'><svg enable-background="new 0 0 100 100" height="100px" id="Layer_1" version="1.1" viewBox="0 0 100 100" width="100px" xml:space="preserve" xmlns="http://www.w3.org/2000/svg" xmlns:xlink="http://www.w3.org/1999/xlink"><g><circle cx="50" cy="50" fill="#2EA6DE" r="45"/><path d="M68.771,34.057c-1.577,0.957-3.318,1.652-5.18,2.025c-1.483-1.625-3.604-2.638-5.949-2.638   c-4.499,0-8.149,3.744-8.149,8.358c0,0.656,0.07,1.292,0.211,1.904c-6.775-0.349-12.781-3.673-16.804-8.737   c-0.702,1.239-1.104,2.676-1.104,4.207c0,2.899,1.439,5.458,3.627,6.958c-1.334-0.041-2.594-0.42-3.694-1.042v0.103   c0,4.051,2.811,7.43,6.542,8.196c-0.684,0.195-1.404,0.293-2.148,0.293c-0.524,0-1.038-0.05-1.534-0.148   c1.037,3.32,4.046,5.738,7.614,5.803c-2.79,2.243-6.307,3.58-10.124,3.58c-0.658,0-1.309-0.039-1.944-0.115   c3.607,2.368,7.894,3.752,12.495,3.752c14.996,0,23.193-12.734,23.193-23.781c0-0.363-0.007-0.728-0.021-1.083   c1.593-1.179,2.976-2.649,4.064-4.326c-1.46,0.664-3.031,1.114-4.681,1.314C66.869,37.646,68.161,36.008,68.771,34.057z" fill="#FFFFFF" id="Twitter_1_"/></g></svg>